<svg width="323" height="287" viewBox="0 0 323 287" fill="none" xmlns="http://www.w3.org/2000/svg">
<path d="M230.5 143.5C230.5 182.56 222.326 217.698 209.326 242.907C196.207 268.347 178.885 282.5 161 282.5C143.115 282.5 125.793 268.347 112.674 242.907C99.6739 217.698 91.5 182.56 91.5 143.5C91.5 104.44 99.6739 69.3016 112.674 44.0927C125.793 18.6526 143.115 4.5 161 4.5C178.885 4.5 196.207 18.6526 209.326 44.0927C222.326 69.3016 230.5 104.44 230.5 143.5Z" stroke="#4A4A4A" stroke-width="9"/>
<path d="M196.025 83.4754C229.851 103.005 256.195 127.653 271.527 151.516C286.999 175.597 290.595 197.676 281.652 213.164C272.71 228.653 251.792 236.578 223.201 235.22C194.869 233.873 160.351 223.383 126.525 203.853C92.698 184.323 66.3539 159.675 51.0222 135.812C35.5499 111.731 31.9548 89.6527 40.8971 74.1641C49.8395 58.6755 70.7573 50.7499 99.3485 52.1086C127.68 53.4549 162.198 63.9455 196.025 83.4754Z" stroke="#4A4A4A" stroke-width="9"/>
<path d="M126.525 83.9754C160.351 64.4455 194.869 53.9549 223.201 52.6086C251.792 51.2499 272.71 59.1755 281.652 74.6641C290.595 90.1527 286.999 112.231 271.527 136.312C256.195 160.175 229.851 184.823 196.025 204.353C162.198 223.883 127.68 234.373 99.3485 235.72C70.7573 237.078 49.8395 229.153 40.8971 213.664C31.9548 198.176 35.5499 176.097 51.0222 152.016C66.3539 128.153 92.698 103.505 126.525 83.9754Z" stroke="#4A4A4A" stroke-width="9"/>
<ellipse cx="157.5" cy="163.5" rx="24.5" ry="17.5" fill="#4A4A4A"/>
<rect x="177" y="95" width="5" height="70" rx="2.5" fill="#4A4A4A"/>
</svg>
